<?xml version="1.0" encoding="iso-8859-1"?>
<!-- Generator: Adobe Illustrator 19.0.0, SVG Export Plug-In . SVG Version: 6.00 Build 0)  -->
<svg version="1.1" id="Capa_1" xmlns="http://www.w3.org/2000/svg" xmlns:xlink="http://www.w3.org/1999/xlink" x="0px" y="0px"
	 viewBox="0 0 486.3 486.3" style="enable-background:new 0 0 486.3 486.3;" xml:space="preserve">
<g>
	<g>
		<g>
			<path fill="#d71925" d="M0,41.25h486.3v128.1c0,44.4-36,80.3-80.3,80.3v-128.8H80.3v128.8c-44.3,0-80.3-36-80.3-80.3C0,169.35,0,41.25,0,41.25z
				 M220.9,349.35c0,12.4,10.1,22.5,22.5,22.5c12.4,0,22.5-10.1,22.5-22.5s-10.1-22.5-22.5-22.5S220.9,336.95,220.9,349.35z
				 M110.8,150.35v257.7c0,20.4,16.6,37,37,37h190.5c20.4,0,37-16.6,37-37v-257.7h-31.6v219.7c-2.2-0.4-4.5-0.6-6.9-0.6
				c-20.7,0-37.5,16.8-37.5,37.5c0,2.2,0.2,4.4,0.6,6.6H186.2c0.4-2.1,0.6-4.3,0.6-6.6c0-20.7-16.8-37.5-37.5-37.5
				c-2.4,0-4.7,0.2-6.9,0.6v-219.7H110.8z M243.1,312.35c-44.7,0-81-36.3-81-81s36.3-81,81-81s81,36.3,81,81
				S287.8,312.35,243.1,312.35z M284.5,213.45l-15.7-15.8l-36.2,36l-15.1-15.2l-15.8,15.7l15.1,15.2l15.7,15.8l15.8-15.7
				L284.5,213.45z"/>
		</g>
	</g>
</g>
<g>
</g>
<g>
</g>
<g>
</g>
<g>
</g>
<g>
</g>
<g>
</g>
<g>
</g>
<g>
</g>
<g>
</g>
<g>
</g>
<g>
</g>
<g>
</g>
<g>
</g>
<g>
</g>
<g>
</g>
</svg>
